<svg width="239" height="246" viewBox="0 0 239 246" fill="none" xmlns="http://www.w3.org/2000/svg">
<path d="M107.55 24.6001C104.381 24.6001 101.341 25.896 99.1002 28.2027C96.8591 30.5094 95.6001 33.6379 95.6001 36.9001C95.6001 40.1623 96.8591 43.2908 99.1002 45.5975C101.341 47.9042 104.381 49.2001 107.55 49.2001H131.45C134.619 49.2001 137.659 47.9042 139.9 45.5975C142.141 43.2908 143.4 40.1623 143.4 36.9001C143.4 33.6379 142.141 30.5094 139.9 28.2027C137.659 25.896 134.619 24.6001 131.45 24.6001H107.55Z" fill="#0C0C0C"/>
<path fill-rule="evenodd" clip-rule="evenodd" d="M47.8 61.4999C47.8 54.9756 50.3181 48.7185 54.8002 44.1051C59.2823 39.4917 65.3614 36.8999 71.7001 36.8999C71.7001 46.6864 75.4771 56.0721 82.2003 62.9921C88.9235 69.9122 98.042 73.7999 107.55 73.7999H131.45C140.958 73.7999 150.077 69.9122 156.8 62.9921C163.523 56.0721 167.3 46.6864 167.3 36.8999C173.639 36.8999 179.718 39.4917 184.2 44.1051C188.682 48.7185 191.2 54.9756 191.2 61.4999V196.8C191.2 203.324 188.682 209.581 184.2 214.195C179.718 218.808 173.639 221.4 167.3 221.4H71.7001C65.3614 221.4 59.2823 218.808 54.8002 214.195C50.3181 209.581 47.8 203.324 47.8 196.8V61.4999ZM83.6501 110.7C80.4807 110.7 77.4412 111.996 75.2001 114.302C72.9591 116.609 71.7001 119.738 71.7001 123C71.7001 126.262 72.9591 129.391 75.2001 131.697C77.4412 134.004 80.4807 135.3 83.6501 135.3H83.7696C86.9389 135.3 89.9784 134.004 92.2195 131.697C94.4605 129.391 95.7196 126.262 95.7196 123C95.7196 119.738 94.4605 116.609 92.2195 114.302C89.9784 111.996 86.9389 110.7 83.7696 110.7H83.6501ZM119.5 110.7C116.331 110.7 113.291 111.996 111.05 114.302C108.809 116.609 107.55 119.738 107.55 123C107.55 126.262 108.809 129.391 111.05 131.697C113.291 134.004 116.331 135.3 119.5 135.3H155.35C158.519 135.3 161.559 134.004 163.8 131.697C166.041 129.391 167.3 126.262 167.3 123C167.3 119.738 166.041 116.609 163.8 114.302C161.559 111.996 158.519 110.7 155.35 110.7H119.5ZM83.6501 159.9C80.4807 159.9 77.4412 161.196 75.2001 163.502C72.9591 165.809 71.7001 168.938 71.7001 172.2C71.7001 175.462 72.9591 178.591 75.2001 180.897C77.4412 183.204 80.4807 184.5 83.6501 184.5H83.7696C86.9389 184.5 89.9784 183.204 92.2195 180.897C94.4605 178.591 95.7196 175.462 95.7196 172.2C95.7196 168.938 94.4605 165.809 92.2195 163.502C89.9784 161.196 86.9389 159.9 83.7696 159.9H83.6501ZM119.5 159.9C116.331 159.9 113.291 161.196 111.05 163.502C108.809 165.809 107.55 168.938 107.55 172.2C107.55 175.462 108.809 178.591 111.05 180.897C113.291 183.204 116.331 184.5 119.5 184.5H155.35C158.519 184.5 161.559 183.204 163.8 180.897C166.041 178.591 167.3 175.462 167.3 172.2C167.3 168.938 166.041 165.809 163.8 163.502C161.559 161.196 158.519 159.9 155.35 159.9H119.5Z" fill="#0C0C0C"/>
</svg>
