<svg width="193" height="198" viewBox="0 0 193 198" fill="none" xmlns="http://www.w3.org/2000/svg">
<path fill-rule="evenodd" clip-rule="evenodd" d="M96.4999 197.4C121.855 197.4 146.171 187.033 164.099 168.579C182.028 150.126 192.1 125.097 192.1 99.0001C192.1 72.9028 182.028 47.8744 164.099 29.4208C146.171 10.9672 121.855 0.600098 96.4999 0.600098C71.1452 0.600098 46.829 10.9672 28.9005 29.4208C10.972 47.8744 0.899902 72.9028 0.899902 99.0001C0.899902 125.097 10.972 150.126 28.9005 168.579C46.829 187.033 71.1452 197.4 96.4999 197.4V197.4ZM28.7673 74.7322C33.2042 61.6538 41.121 50.1212 51.6157 41.4484C54.8183 46.4791 60.3392 49.8001 66.6249 49.8001C71.3789 49.8001 75.9382 51.7439 79.2998 55.204C82.6614 58.664 84.5499 63.3568 84.5499 68.2501V74.4001C84.5499 80.9244 87.0679 87.1815 91.55 91.7949C96.0322 96.4083 102.111 99.0001 108.45 99.0001C114.789 99.0001 120.868 96.4083 125.35 91.7949C129.832 87.1815 132.35 80.9244 132.35 74.4001C132.348 68.8949 134.14 63.5481 137.44 59.2153C140.739 54.8826 145.356 51.8142 150.55 50.5012C161.954 63.9287 168.227 81.1654 168.2 99.0001C168.2 103.182 167.865 107.303 167.208 111.3H156.25C149.911 111.3 143.832 113.892 139.35 118.505C134.868 123.119 132.35 129.376 132.35 135.9V162.923C121.455 169.411 109.087 172.819 96.4999 172.8V148.2C96.4999 141.676 93.9819 135.419 89.4997 130.805C85.0176 126.192 78.9386 123.6 72.5999 123.6C66.2612 123.6 60.1822 121.008 55.7 116.395C51.2179 111.782 48.6999 105.524 48.6999 99.0001C48.702 93.1822 46.7007 87.5518 43.0515 83.1088C39.4023 78.6659 34.3412 75.698 28.7673 74.7322V74.7322Z" fill="#0C0C0C"/>
</svg>
