<svg width="239" height="246" viewBox="0 0 239 246" fill="none" xmlns="http://www.w3.org/2000/svg">
<path fill-rule="evenodd" clip-rule="evenodd" d="M119.5 221.4C144.855 221.4 169.171 211.033 187.099 192.579C205.028 174.126 215.1 149.097 215.1 123C215.1 96.9028 205.028 71.8744 187.099 53.4208C169.171 34.9672 144.855 24.6001 119.5 24.6001C94.1452 24.6001 69.829 34.9672 51.9005 53.4208C33.972 71.8744 23.8999 96.9028 23.8999 123C23.8999 149.097 33.972 174.126 51.9005 192.579C69.829 211.033 94.1452 221.4 119.5 221.4ZM51.7673 98.7322C56.2042 85.6538 64.121 74.1212 74.6157 65.4484C77.8183 70.4791 83.3392 73.8001 89.6249 73.8001C94.3789 73.8001 98.9382 75.7439 102.3 79.204C105.661 82.664 107.55 87.3568 107.55 92.2501V98.4001C107.55 104.924 110.068 111.182 114.55 115.795C119.032 120.408 125.111 123 131.45 123C137.789 123 143.868 120.408 148.35 115.795C152.832 111.182 155.35 104.924 155.35 98.4001C155.348 92.8949 157.14 87.5481 160.44 83.2153C163.739 78.8826 168.356 75.8142 173.55 74.5012C184.954 87.9287 191.227 105.165 191.2 123C191.2 127.182 190.865 131.303 190.208 135.3H179.25C172.911 135.3 166.832 137.892 162.35 142.505C157.868 147.119 155.35 153.376 155.35 159.9V186.923C144.455 193.411 132.087 196.819 119.5 196.8V172.2C119.5 165.676 116.982 159.419 112.5 154.805C108.018 150.192 101.939 147.6 95.5999 147.6C89.2612 147.6 83.1822 145.008 78.7 140.395C74.2179 135.782 71.6999 129.524 71.6999 123C71.702 117.182 69.7007 111.552 66.0515 107.109C62.4023 102.666 57.3412 99.698 51.7673 98.7322Z" fill="#0C0C0C"/>
</svg>
